<?xml version="1.0" encoding="UTF-8"?>
<!DOCTYPE svg PUBLIC "-//W3C//DTD SVG 1.1//EN" "http://www.w3.org/Graphics/SVG/1.1/DTD/svg11.dtd">
<svg version="1.1" xmlns="http://www.w3.org/2000/svg" xmlns:xlink="http://www.w3.org/1999/xlink" x="0" y="0" width="150" height="61" viewBox="0, 0, 150, 61">
  <g id="Layer_1" class="logo-text">
    <text transform="matrix(2, 0, 0, 2, 44.32, 23.615)">
      <tspan x="-18.183" y="3.692" font-family="Impact" font-size="15" kerning="0" fill="#FF0000">HEM</tspan>
    </text>
    <text transform="matrix(2, 0, 0, 2, 103.22, 46.826)">
      <tspan x="-28.295" y="5.58" font-family="Noteworthy-Light" font-size="13" fill="#FF0000">Swimmers</tspan>
    </text>
    <g>
      <path d="M71.196,17.584 C69.815,17.584 68.696,16.465 68.696,15.084 C68.696,13.703 69.815,12.584 71.196,12.584 C72.577,12.584 73.696,13.703 73.696,15.084 C73.696,16.465 72.577,17.584 71.196,17.584 z" fill="#FFFFFF"/>
      <path d="M71.196,17.584 C69.815,17.584 68.696,16.465 68.696,15.084 C68.696,13.703 69.815,12.584 71.196,12.584 C72.577,12.584 73.696,13.703 73.696,15.084 C73.696,16.465 72.577,17.584 71.196,17.584 z" fill-opacity="0" stroke="#000000" stroke-width="1.5"/>
    </g>
    <path d="M71.585,29.206 C62.499,29.33 62.501,18.431 62.501,13.628 C62.501,8.826 66.394,4.933 71.196,4.933 C75.998,4.933 79.892,8.826 79.892,13.628 C79.892,18.431 79.892,29.092 71.585,29.206 z" fill-opacity="0" stroke="#FF0000" stroke-width="4"/>
    <g>
      <g>
        <path d="M68.005,4.43 C68.005,2.615 69.285,1 71.1,1 C72.916,1 74.388,2.472 74.388,4.287 z" fill="#FF0000"/>
        <path d="M68.005,4.43 C68.005,2.615 69.285,1 71.1,1 C72.916,1 74.388,2.472 74.388,4.287 z" fill-opacity="0" stroke="#FF0000" stroke-width="1.5" stroke-linecap="round" stroke-linejoin="round"/>
      </g>
      <g>
        <path d="M68.005,5.426 L74.388,5.283" fill="#FF0000"/>
        <path d="M68.005,5.426 L74.388,5.283" fill-opacity="0" stroke="#FF0000" stroke-width="1.5" stroke-linecap="round" stroke-linejoin="round"/>
      </g>
    </g>
    <g>
      <g>
        <path d="M80.585,11.378 C82.124,11.378 83.493,12.464 83.493,14.003 C83.493,15.542 82.245,16.79 80.706,16.79 z" fill="#FF0000"/>
        <path d="M80.585,11.378 C82.124,11.378 83.493,12.464 83.493,14.003 C83.493,15.542 82.245,16.79 80.706,16.79 z" fill-opacity="0" stroke="#FF0000" stroke-width="1.5" stroke-linecap="round" stroke-linejoin="round"/>
      </g>
      <g>
        <path d="M79.493,11.378 L79.615,16.79" fill="#FF0000"/>
        <path d="M79.493,11.378 L79.615,16.79" fill-opacity="0" stroke="#FF0000" stroke-width="1.5" stroke-linecap="round" stroke-linejoin="round"/>
      </g>
    </g>
    <g>
      <g>
        <path d="M61.807,16.79 C60.268,16.79 58.899,15.704 58.899,14.165 C58.899,12.626 60.147,11.378 61.686,11.378 z" fill="#FF0000"/>
        <path d="M61.807,16.79 C60.268,16.79 58.899,15.704 58.899,14.165 C58.899,12.626 60.147,11.378 61.686,11.378 z" fill-opacity="0" stroke="#FF0000" stroke-width="1.5" stroke-linecap="round" stroke-linejoin="round"/>
      </g>
      <g>
        <path d="M62.899,16.79 L62.777,11.378" fill="#FF0000"/>
        <path d="M62.899,16.79 L62.777,11.378" fill-opacity="0" stroke="#FF0000" stroke-width="1.5" stroke-linecap="round" stroke-linejoin="round"/>
      </g>
    </g>
    <path d="M68.891,29.207 L68.891,35.912" fill-opacity="0" stroke="#FF0000" stroke-width="1.5"/>
    <path d="M73.501,29.207 L73.501,35.912" fill-opacity="0" stroke="#FF0000" stroke-width="1.5"/>
    <g>
      <path d="M68.891,38.343 C68.063,38.343 67.391,37.671 67.391,36.843 C67.391,36.014 68.063,35.343 68.891,35.343 C69.72,35.343 70.391,36.014 70.391,36.843 C70.391,37.671 69.72,38.343 68.891,38.343 z" fill="#FFFFFF"/>
      <path d="M68.891,38.343 C68.063,38.343 67.391,37.671 67.391,36.843 C67.391,36.014 68.063,35.343 68.891,35.343 C69.72,35.343 70.391,36.014 70.391,36.843 C70.391,37.671 69.72,38.343 68.891,38.343 z" fill-opacity="0" stroke="#FF0000" stroke-width="1"/>
    </g>
    <g>
      <path d="M73.568,38.343 C72.739,38.343 72.068,37.671 72.068,36.843 C72.068,36.014 72.739,35.343 73.568,35.343 C74.396,35.343 75.068,36.014 75.068,36.843 C75.068,37.671 74.396,38.343 73.568,38.343 z" fill="#FFFFFF"/>
      <path d="M73.568,38.343 C72.739,38.343 72.068,37.671 72.068,36.843 C72.068,36.014 72.739,35.343 73.568,35.343 C74.396,35.343 75.068,36.014 75.068,36.843 C75.068,37.671 74.396,38.343 73.568,38.343 z" fill-opacity="0" stroke="#FF0000" stroke-width="1"/>
    </g>
    <path d="M62.141,39.164 L62.141,32.46 L66.502,32.46 L66.502,28.191" fill-opacity="0" stroke="#FF0000" stroke-width="1.5" stroke-linejoin="round"/>
    <g>
      <path d="M62.141,41.595 C61.312,41.595 60.641,40.924 60.641,40.095 C60.641,39.267 61.312,38.595 62.141,38.595 C62.969,38.595 63.641,39.267 63.641,40.095 C63.641,40.924 62.969,41.595 62.141,41.595 z" fill="#FFFFFF"/>
      <path d="M62.141,41.595 C61.312,41.595 60.641,40.924 60.641,40.095 C60.641,39.267 61.312,38.595 62.141,38.595 C62.969,38.595 63.641,39.267 63.641,40.095 C63.641,40.924 62.969,41.595 62.141,41.595 z" fill-opacity="0" stroke="#FF0000" stroke-width="1"/>
    </g>
    <path d="M80.686,39.164 L80.686,32.46 L76.324,32.46 L76.324,28.191" fill-opacity="0" stroke="#FF0000" stroke-width="1.5" stroke-linejoin="round"/>
    <g>
      <path d="M80.686,41.595 C81.514,41.595 82.186,40.924 82.186,40.095 C82.186,39.267 81.514,38.595 80.686,38.595 C79.857,38.595 79.186,39.267 79.186,40.095 C79.186,40.924 79.857,41.595 80.686,41.595 z" fill="#FFFFFF"/>
      <path d="M80.686,41.595 C81.514,41.595 82.186,40.924 82.186,40.095 C82.186,39.267 81.514,38.595 80.686,38.595 C79.857,38.595 79.186,39.267 79.186,40.095 C79.186,40.924 79.857,41.595 80.686,41.595 z" fill-opacity="0" stroke="#FF0000" stroke-width="1"/>
    </g>
  </g>
</svg>
